<svg width="62" height="60" viewBox="0 0 62 60" fill="none" xmlns="http://www.w3.org/2000/svg">
<path fill-rule="evenodd" clip-rule="evenodd" d="M31 0C13.8725 0 0 13.425 0 30C0 43.275 8.87375 54.4875 21.1962 58.4625C22.7462 58.725 23.3275 57.825 23.3275 57.0375C23.3275 56.325 23.2887 53.9625 23.2887 51.45C15.5 52.8375 13.485 49.6125 12.865 47.925C12.5162 47.0625 11.005 44.4 9.6875 43.6875C8.6025 43.125 7.0525 41.7375 9.64875 41.7C12.09 41.6625 13.8337 43.875 14.415 44.775C17.205 49.3125 21.6612 48.0375 23.4437 47.25C23.715 45.3 24.5287 43.9875 25.42 43.2375C18.5225 42.4875 11.315 39.9 11.315 28.425C11.315 25.1625 12.5162 22.4625 14.4925 20.3625C14.1825 19.6125 13.0975 16.5375 14.8025 12.4125C14.8025 12.4125 17.3987 11.625 23.3275 15.4875C25.8075 14.8125 28.4425 14.475 31.0775 14.475C33.7125 14.475 36.3475 14.8125 38.8275 15.4875C44.7562 11.5875 47.3525 12.4125 47.3525 12.4125C49.0575 16.5375 47.9725 19.6125 47.6625 20.3625C49.6388 22.4625 50.84 25.125 50.84 28.425C50.84 39.9375 43.5938 42.4875 36.6962 43.2375C37.82 44.175 38.7887 45.975 38.7887 48.7875C38.7887 52.8 38.75 56.025 38.75 57.0375C38.75 57.825 39.3312 58.7625 40.8812 58.4625C47.0352 56.4518 52.3827 52.6242 56.1711 47.5184C59.9595 42.4126 61.9981 36.2857 62 30C62 13.425 48.1275 0 31 0Z" fill="black"/>
</svg>
