<svg width="63" height="63" viewBox="0 0 63 63" fill="none" xmlns="http://www.w3.org/2000/svg">
<path d="M57.2394 26.3589H55.125V26.25H31.5V36.75H46.3352C44.1709 42.8623 38.3552 47.25 31.5 47.25C22.8021 47.25 15.75 40.1979 15.75 31.5C15.75 22.8021 22.8021 15.75 31.5 15.75C35.5149 15.75 39.1676 17.2646 41.9488 19.7387L49.3736 12.3139C44.6854 7.94456 38.4142 5.25 31.5 5.25C17.0034 5.25 5.25 17.0034 5.25 31.5C5.25 45.9966 17.0034 57.75 31.5 57.75C45.9966 57.75 57.75 45.9966 57.75 31.5C57.75 29.7399 57.5689 28.0219 57.2394 26.3589Z" fill="#FFC107"/>
<path d="M8.27661 19.2819L16.901 25.6069C19.2347 19.8293 24.8863 15.75 31.5 15.75C35.5149 15.75 39.1676 17.2646 41.9488 19.7387L49.3736 12.3139C44.6854 7.94456 38.4142 5.25 31.5 5.25C21.4174 5.25 12.6735 10.9423 8.27661 19.2819Z" fill="#FF3D00"/>
<path d="M31.5 57.75C38.2804 57.75 44.4413 55.1552 49.0993 50.9355L40.975 44.0606C38.2509 46.1323 34.9223 47.2527 31.5 47.25C24.6724 47.25 18.8751 42.8965 16.6911 36.8209L8.13095 43.4162C12.4753 51.9173 21.298 57.75 31.5 57.75Z" fill="#4CAF50"/>
<path d="M57.2394 26.3589H55.125V26.25H31.5V36.75H46.3352C45.2999 39.659 43.435 42.201 40.971 44.0619L40.9749 44.0593L49.0993 50.9342C48.5244 51.4566 57.75 44.625 57.75 31.5C57.75 29.7399 57.5689 28.0219 57.2394 26.3589Z" fill="#1976D2"/>
</svg>
