<svg width="146" height="146" viewBox="0 0 146 146" fill="none" xmlns="http://www.w3.org/2000/svg">
<path d="M146 73C146 92.3608 138.309 110.929 124.619 124.619C110.929 138.309 92.3608 146 73 146C53.6392 146 35.0714 138.309 21.3812 124.619C7.69105 110.929 0 92.3608 0 73C0 53.6392 7.69105 35.0714 21.3812 21.3812C35.0714 7.69105 53.6392 0 73 0C92.3608 0 110.929 7.69105 124.619 21.3812C138.309 35.0714 146 53.6392 146 73ZM57.0312 45.625C50.735 45.625 45.625 50.735 45.625 57.0312V88.9688C45.625 91.9939 46.8267 94.8951 48.9658 97.0342C51.1049 99.1733 54.0061 100.375 57.0312 100.375C60.0564 100.375 62.9576 99.1733 65.0967 97.0342C67.2358 94.8951 68.4375 91.9939 68.4375 88.9688V57.0312C68.4375 50.735 63.3275 45.625 57.0312 45.625ZM88.9688 45.625C82.6725 45.625 77.5625 50.735 77.5625 57.0312V88.9688C77.5625 91.9939 78.7642 94.8951 80.9033 97.0342C83.0424 99.1733 85.9436 100.375 88.9688 100.375C91.9939 100.375 94.8951 99.1733 97.0342 97.0342C99.1733 94.8951 100.375 91.9939 100.375 88.9688V57.0312C100.375 50.735 95.265 45.625 88.9688 45.625Z" fill="url(#paint0_linear_65_7)"/>
<defs>
<linearGradient id="paint0_linear_65_7" x1="0" y1="73" x2="146" y2="73" gradientUnits="userSpaceOnUse">
<stop stop-color="#DB392C" stop-opacity="0.95"/>
<stop offset="1" stop-color="#1976D2" stop-opacity="0.96"/>
</linearGradient>
</defs>
</svg>
