<svg width="146" height="146" viewBox="0 0 146 146" fill="none" xmlns="http://www.w3.org/2000/svg">
<path d="M145.691 73C145.691 92.3608 138 110.929 124.31 124.619C110.62 138.309 92.0517 146 72.6909 146C53.3301 146 34.7623 138.309 21.0721 124.619C7.38197 110.929 -0.309082 92.3608 -0.309082 73C-0.309082 53.6392 7.38197 35.0714 21.0721 21.3812C34.7623 7.69105 53.3301 0 72.6909 0C92.0517 0 110.62 7.69105 124.31 21.3812C138 35.0714 145.691 53.6392 145.691 73ZM61.6497 46.4736C60.9674 45.9879 60.1647 45.6993 59.3294 45.6395C58.494 45.5796 57.6583 45.7509 56.9139 46.1344C56.1694 46.518 55.5448 47.099 55.1086 47.8139C54.6724 48.5289 54.4414 49.35 54.4409 50.1875V95.8125C54.4414 96.65 54.6724 97.4711 55.1086 98.1861C55.5448 98.901 56.1694 99.482 56.9139 99.8656C57.6583 100.249 58.494 100.42 59.3294 100.361C60.1647 100.301 60.9674 100.012 61.6497 99.5264L93.5872 76.7139C94.1786 76.2918 94.6607 75.7346 94.9933 75.0886C95.3259 74.4427 95.4995 73.7266 95.4995 73C95.4995 72.2734 95.3259 71.5573 94.9933 70.9113C94.6607 70.2654 94.1786 69.7082 93.5872 69.2861L61.6497 46.4736Z" fill="url(#paint0_linear_45_407)"/>
<defs>
<linearGradient id="paint0_linear_45_407" x1="146" y1="73" x2="3.36936e-06" y2="73" gradientUnits="userSpaceOnUse">
<stop stop-color="#1976D2" stop-opacity="0.96"/>
<stop offset="1" stop-color="#DB392C" stop-opacity="0.95"/>
</linearGradient>
</defs>
</svg>
