<svg width="59" height="59" viewBox="0 0 59 59" fill="none" xmlns="http://www.w3.org/2000/svg">
<path d="M10.773 0C4.80525 0 0 4.80524 0 10.773V48.2269C0 54.1947 4.80525 58.9999 10.773 58.9999H31.0728V35.9346H24.9736V27.6304H31.0728V20.5357C31.0728 14.9617 34.6764 9.84378 42.9778 9.84378C46.339 9.84378 48.8244 10.1664 48.8244 10.1664L48.6289 17.9213C48.6289 17.9213 46.0941 17.8973 43.3281 17.8973C40.3345 17.8973 39.8545 19.2766 39.8545 21.5664V27.6305H48.8667L48.474 35.9347H39.8545V59H48.227C54.1947 59 59 54.1948 59 48.227V10.7731C59 4.8053 54.1947 5.89999e-05 48.227 5.89999e-05H10.773L10.773 0Z" fill="#1877F2"/>
</svg>
